<mxfile host="Electron" modified="2024-10-08T10:14:54.827Z" agent="Mozilla/5.0 (X11; Linux x86_64) AppleWebKit/537.36 (KHTML, like Gecko) draw.io/24.1.0 Chrome/120.0.6099.109 Electron/28.1.0 Safari/537.36" etag="avnZyZU6Z-QWIiTDgF3a" version="24.1.0" type="device">
  <diagram name="Page-1" id="-cMVqA2Gkwa5aGeDibPs">
    <mxGraphModel dx="1762" dy="1243" grid="1" gridSize="10" guides="1" tooltips="1" connect="1" arrows="1" fold="1" page="0" pageScale="1" pageWidth="413" pageHeight="583" math="1" shadow="0">
      <root>
        <mxCell id="0" />
        <mxCell id="1" parent="0" />
        <mxCell id="eN8Zq5XajQ-hrPbZrUXH-4" value="" style="edgeStyle=orthogonalEdgeStyle;rounded=0;orthogonalLoop=1;jettySize=auto;html=1;exitX=1;exitY=0.5;exitDx=0;exitDy=0;" parent="1" source="HanA1OKdP7TFDTROJioc-21" target="eN8Zq5XajQ-hrPbZrUXH-3" edge="1">
          <mxGeometry relative="1" as="geometry">
            <mxPoint x="-160" y="160" as="sourcePoint" />
          </mxGeometry>
        </mxCell>
        <mxCell id="VlKzPEms0ibN2ueOCc-_-25" value="" style="edgeStyle=orthogonalEdgeStyle;rounded=0;orthogonalLoop=1;jettySize=auto;html=1;" parent="1" source="GCO7xrDp6TmdYOZJOnFd-4" target="GCO7xrDp6TmdYOZJOnFd-99" edge="1">
          <mxGeometry relative="1" as="geometry" />
        </mxCell>
        <mxCell id="GCO7xrDp6TmdYOZJOnFd-4" value="&lt;table style=&quot;font-size: 8px;&quot;&gt;&lt;tbody&gt;&lt;tr&gt;&lt;td&gt;&lt;font style=&quot;font-size: 8px;&quot;&gt;$$-1$$&lt;/font&gt;&lt;/td&gt;&lt;/tr&gt;&lt;tr&gt;&lt;td&gt;&lt;font style=&quot;font-size: 8px;&quot;&gt;$$1$$&lt;/font&gt;&lt;/td&gt;&lt;/tr&gt;&lt;tr&gt;&lt;td&gt;&lt;font style=&quot;font-size: 8px;&quot;&gt;$$1$$&lt;/font&gt;&lt;/td&gt;&lt;/tr&gt;&lt;/tbody&gt;&lt;/table&gt;" style="whiteSpace=wrap;html=1;aspect=fixed;" parent="1" vertex="1">
          <mxGeometry x="520" y="120" width="80" height="80" as="geometry" />
        </mxCell>
        <mxCell id="VlKzPEms0ibN2ueOCc-_-24" value="" style="edgeStyle=orthogonalEdgeStyle;rounded=0;orthogonalLoop=1;jettySize=auto;html=1;" parent="1" source="GCO7xrDp6TmdYOZJOnFd-99" target="VlKzPEms0ibN2ueOCc-_-6" edge="1">
          <mxGeometry relative="1" as="geometry" />
        </mxCell>
        <mxCell id="GCO7xrDp6TmdYOZJOnFd-99" value="$$KpOel+\frac{KiOel}{s}+\frac{KdOel*s}{1+tDOel*s}$$" style="rounded=0;whiteSpace=wrap;html=1;" parent="1" vertex="1">
          <mxGeometry x="640" y="120" width="240" height="80" as="geometry" />
        </mxCell>
        <mxCell id="GCO7xrDp6TmdYOZJOnFd-110" value="" style="endArrow=none;html=1;exitX=0.5;exitY=0;exitDx=0;exitDy=0;" parent="1" source="GCO7xrDp6TmdYOZJOnFd-99" edge="1">
          <mxGeometry width="50" height="50" relative="1" as="geometry">
            <mxPoint x="680" y="130" as="sourcePoint" />
            <mxPoint x="800" y="110" as="targetPoint" />
          </mxGeometry>
        </mxCell>
        <mxCell id="GCO7xrDp6TmdYOZJOnFd-111" value="" style="endArrow=none;html=1;" parent="1" edge="1">
          <mxGeometry width="50" height="50" relative="1" as="geometry">
            <mxPoint x="800" y="110" as="sourcePoint" />
            <mxPoint x="820" y="110" as="targetPoint" />
          </mxGeometry>
        </mxCell>
        <mxCell id="GCO7xrDp6TmdYOZJOnFd-112" value="&lt;font style=&quot;font-size: 9px;&quot;&gt;$$VOel3MaxPu$$&lt;/font&gt;" style="text;html=1;strokeColor=none;fillColor=none;align=center;verticalAlign=middle;whiteSpace=wrap;rounded=0;fontSize=15;" parent="1" vertex="1">
          <mxGeometry x="800" y="80" width="80" height="30" as="geometry" />
        </mxCell>
        <mxCell id="GCO7xrDp6TmdYOZJOnFd-113" value="" style="endArrow=none;html=1;" parent="1" edge="1">
          <mxGeometry width="50" height="50" relative="1" as="geometry">
            <mxPoint x="720" y="210" as="sourcePoint" />
            <mxPoint x="700" y="210" as="targetPoint" />
          </mxGeometry>
        </mxCell>
        <mxCell id="GCO7xrDp6TmdYOZJOnFd-114" value="&lt;font style=&quot;font-size: 9px;&quot;&gt;$$VOel3MinPu$$&lt;/font&gt;" style="text;html=1;strokeColor=none;fillColor=none;align=center;verticalAlign=middle;whiteSpace=wrap;rounded=0;fontSize=15;" parent="1" vertex="1">
          <mxGeometry x="640" y="210" width="80" height="30" as="geometry" />
        </mxCell>
        <mxCell id="GCO7xrDp6TmdYOZJOnFd-115" value="" style="endArrow=none;html=1;entryX=0.5;entryY=1;entryDx=0;entryDy=0;" parent="1" target="GCO7xrDp6TmdYOZJOnFd-99" edge="1">
          <mxGeometry width="50" height="50" relative="1" as="geometry">
            <mxPoint x="720" y="210" as="sourcePoint" />
            <mxPoint x="661" y="190" as="targetPoint" />
          </mxGeometry>
        </mxCell>
        <mxCell id="GCO7xrDp6TmdYOZJOnFd-120" value="&lt;table style=&quot;&quot;&gt;&lt;tbody&gt;&lt;tr&gt;&lt;td&gt;&lt;font style=&quot;font-size: 12px;&quot;&gt;$$KAct$$&lt;/font&gt;&lt;/td&gt;&lt;/tr&gt;&lt;/tbody&gt;&lt;/table&gt;" style="whiteSpace=wrap;html=1;aspect=fixed;" parent="1" vertex="1">
          <mxGeometry x="80" y="-40" width="80" height="80" as="geometry" />
        </mxCell>
        <mxCell id="VlKzPEms0ibN2ueOCc-_-26" value="" style="edgeStyle=orthogonalEdgeStyle;rounded=0;orthogonalLoop=1;jettySize=auto;html=1;" parent="1" source="eN8Zq5XajQ-hrPbZrUXH-3" target="qLZYFt0uQZEpN5fuRu8l-13" edge="1">
          <mxGeometry relative="1" as="geometry" />
        </mxCell>
        <mxCell id="eN8Zq5XajQ-hrPbZrUXH-3" value="&lt;font style=&quot;font-size: 10px;&quot;&gt;$$\frac{1}{1+tROel*s}$$&lt;/font&gt;" style="whiteSpace=wrap;html=1;aspect=fixed;" parent="1" vertex="1">
          <mxGeometry x="-120" y="120" width="80" height="80" as="geometry" />
        </mxCell>
        <mxCell id="qLZYFt0uQZEpN5fuRu8l-12" value="&lt;font style=&quot;font-size: 10px;&quot;&gt;$$\frac{1}{1+tAOel*s}$$&lt;/font&gt;" style="rounded=0;whiteSpace=wrap;html=1;" parent="1" vertex="1">
          <mxGeometry x="320" y="280" width="80" height="80" as="geometry" />
        </mxCell>
        <mxCell id="VlKzPEms0ibN2ueOCc-_-2" value="" style="edgeStyle=orthogonalEdgeStyle;rounded=0;orthogonalLoop=1;jettySize=auto;html=1;" parent="1" source="qLZYFt0uQZEpN5fuRu8l-13" target="VlKzPEms0ibN2ueOCc-_-1" edge="1">
          <mxGeometry relative="1" as="geometry" />
        </mxCell>
        <mxCell id="qLZYFt0uQZEpN5fuRu8l-13" value="&lt;font style=&quot;font-size: 12px;&quot;&gt;$$OelReferenceCurrent$$&lt;/font&gt;" style="rounded=0;whiteSpace=wrap;html=1;" parent="1" vertex="1">
          <mxGeometry x="40" y="80" width="160" height="160" as="geometry" />
        </mxCell>
        <mxCell id="HanA1OKdP7TFDTROJioc-21" value="$$inputPu$$" style="text;strokeColor=none;align=center;fillColor=none;html=1;verticalAlign=middle;whiteSpace=wrap;rounded=0;" parent="1" vertex="1">
          <mxGeometry x="-220" y="145" width="60" height="30" as="geometry" />
        </mxCell>
        <mxCell id="VlKzPEms0ibN2ueOCc-_-32" value="" style="edgeStyle=orthogonalEdgeStyle;rounded=0;orthogonalLoop=1;jettySize=auto;html=1;" parent="1" source="VlKzPEms0ibN2ueOCc-_-1" target="GCO7xrDp6TmdYOZJOnFd-4" edge="1">
          <mxGeometry relative="1" as="geometry" />
        </mxCell>
        <mxCell id="VlKzPEms0ibN2ueOCc-_-1" value="&lt;font style=&quot;font-size: 12px;&quot;&gt;$$OEL$$&lt;/font&gt;&lt;div&gt;&lt;font style=&quot;font-size: 12px;&quot;&gt;$$activation$$&lt;/font&gt;&lt;/div&gt;&lt;div&gt;&lt;font style=&quot;font-size: 12px;&quot;&gt;$$logic$$&lt;/font&gt;&lt;/div&gt;" style="rounded=0;whiteSpace=wrap;html=1;" parent="1" vertex="1">
          <mxGeometry x="280" y="80" width="160" height="160" as="geometry" />
        </mxCell>
        <mxCell id="VlKzPEms0ibN2ueOCc-_-3" value="" style="endArrow=classic;html=1;rounded=0;exitX=1;exitY=0.75;exitDx=0;exitDy=0;entryX=0;entryY=0.75;entryDx=0;entryDy=0;" parent="1" source="qLZYFt0uQZEpN5fuRu8l-13" target="VlKzPEms0ibN2ueOCc-_-1" edge="1">
          <mxGeometry width="50" height="50" relative="1" as="geometry">
            <mxPoint x="320" y="210" as="sourcePoint" />
            <mxPoint x="370" y="160" as="targetPoint" />
          </mxGeometry>
        </mxCell>
        <mxCell id="VlKzPEms0ibN2ueOCc-_-5" style="edgeStyle=orthogonalEdgeStyle;rounded=0;orthogonalLoop=1;jettySize=auto;html=1;exitX=0.5;exitY=1;exitDx=0;exitDy=0;" parent="1" source="VlKzPEms0ibN2ueOCc-_-6" edge="1">
          <mxGeometry relative="1" as="geometry">
            <mxPoint x="960.2" y="190.20000000000005" as="targetPoint" />
          </mxGeometry>
        </mxCell>
        <mxCell id="VlKzPEms0ibN2ueOCc-_-23" value="" style="edgeStyle=orthogonalEdgeStyle;rounded=0;orthogonalLoop=1;jettySize=auto;html=1;" parent="1" source="VlKzPEms0ibN2ueOCc-_-6" target="VlKzPEms0ibN2ueOCc-_-14" edge="1">
          <mxGeometry relative="1" as="geometry" />
        </mxCell>
        <mxCell id="VlKzPEms0ibN2ueOCc-_-6" value="&lt;font style=&quot;font-size: 8px;&quot;&gt;$$\frac{1+tC2Oel*s}{1+tB2Oel*s}$$&lt;/font&gt;" style="rounded=0;whiteSpace=wrap;html=1;" parent="1" vertex="1">
          <mxGeometry x="920" y="120" width="80" height="80" as="geometry" />
        </mxCell>
        <mxCell id="VlKzPEms0ibN2ueOCc-_-7" value="" style="endArrow=none;html=1;exitX=0.5;exitY=0;exitDx=0;exitDy=0;" parent="1" source="VlKzPEms0ibN2ueOCc-_-6" edge="1">
          <mxGeometry width="50" height="50" relative="1" as="geometry">
            <mxPoint x="960" y="130" as="sourcePoint" />
            <mxPoint x="980" y="110" as="targetPoint" />
          </mxGeometry>
        </mxCell>
        <mxCell id="VlKzPEms0ibN2ueOCc-_-8" value="" style="endArrow=none;html=1;" parent="1" edge="1">
          <mxGeometry width="50" height="50" relative="1" as="geometry">
            <mxPoint x="980" y="110" as="sourcePoint" />
            <mxPoint x="1000" y="110" as="targetPoint" />
          </mxGeometry>
        </mxCell>
        <mxCell id="VlKzPEms0ibN2ueOCc-_-9" value="" style="endArrow=none;html=1;" parent="1" edge="1">
          <mxGeometry width="50" height="50" relative="1" as="geometry">
            <mxPoint x="921" y="210" as="sourcePoint" />
            <mxPoint x="901" y="210" as="targetPoint" />
          </mxGeometry>
        </mxCell>
        <mxCell id="VlKzPEms0ibN2ueOCc-_-10" value="" style="endArrow=none;html=1;exitX=0.5;exitY=0;exitDx=0;exitDy=0;entryX=0.25;entryY=1;entryDx=0;entryDy=0;" parent="1" target="VlKzPEms0ibN2ueOCc-_-6" edge="1">
          <mxGeometry width="50" height="50" relative="1" as="geometry">
            <mxPoint x="921" y="210" as="sourcePoint" />
            <mxPoint x="941" y="190" as="targetPoint" />
          </mxGeometry>
        </mxCell>
        <mxCell id="VlKzPEms0ibN2ueOCc-_-11" value="&lt;font style=&quot;font-size: 9px;&quot;&gt;$$VOel2MinPu$$&lt;/font&gt;" style="text;html=1;strokeColor=none;fillColor=none;align=center;verticalAlign=middle;whiteSpace=wrap;rounded=0;fontSize=15;" parent="1" vertex="1">
          <mxGeometry x="840" y="206" width="120" height="30" as="geometry" />
        </mxCell>
        <mxCell id="VlKzPEms0ibN2ueOCc-_-12" value="&lt;font style=&quot;font-size: 9px;&quot;&gt;$$VOel2MaxPu$$&lt;/font&gt;" style="text;html=1;strokeColor=none;fillColor=none;align=center;verticalAlign=middle;whiteSpace=wrap;rounded=0;fontSize=15;" parent="1" vertex="1">
          <mxGeometry x="920" y="80" width="160" height="30" as="geometry" />
        </mxCell>
        <mxCell id="VlKzPEms0ibN2ueOCc-_-13" style="edgeStyle=orthogonalEdgeStyle;rounded=0;orthogonalLoop=1;jettySize=auto;html=1;exitX=0.5;exitY=1;exitDx=0;exitDy=0;" parent="1" source="VlKzPEms0ibN2ueOCc-_-14" edge="1">
          <mxGeometry relative="1" as="geometry">
            <mxPoint x="1080.2" y="190.20000000000005" as="targetPoint" />
          </mxGeometry>
        </mxCell>
        <mxCell id="VlKzPEms0ibN2ueOCc-_-22" value="" style="edgeStyle=orthogonalEdgeStyle;rounded=0;orthogonalLoop=1;jettySize=auto;html=1;" parent="1" source="VlKzPEms0ibN2ueOCc-_-14" target="VlKzPEms0ibN2ueOCc-_-21" edge="1">
          <mxGeometry relative="1" as="geometry" />
        </mxCell>
        <mxCell id="VlKzPEms0ibN2ueOCc-_-14" value="&lt;font style=&quot;font-size: 8px;&quot;&gt;$$\frac{1+tC1Oel*s}{1+tB1Oel*s}$$&lt;/font&gt;" style="rounded=0;whiteSpace=wrap;html=1;" parent="1" vertex="1">
          <mxGeometry x="1040" y="120" width="80" height="80" as="geometry" />
        </mxCell>
        <mxCell id="VlKzPEms0ibN2ueOCc-_-15" value="" style="endArrow=none;html=1;exitX=0.5;exitY=0;exitDx=0;exitDy=0;" parent="1" source="VlKzPEms0ibN2ueOCc-_-14" edge="1">
          <mxGeometry width="50" height="50" relative="1" as="geometry">
            <mxPoint x="1080" y="130" as="sourcePoint" />
            <mxPoint x="1100" y="110" as="targetPoint" />
          </mxGeometry>
        </mxCell>
        <mxCell id="VlKzPEms0ibN2ueOCc-_-16" value="" style="endArrow=none;html=1;" parent="1" edge="1">
          <mxGeometry width="50" height="50" relative="1" as="geometry">
            <mxPoint x="1100" y="110" as="sourcePoint" />
            <mxPoint x="1120" y="110" as="targetPoint" />
          </mxGeometry>
        </mxCell>
        <mxCell id="VlKzPEms0ibN2ueOCc-_-17" value="" style="endArrow=none;html=1;" parent="1" edge="1">
          <mxGeometry width="50" height="50" relative="1" as="geometry">
            <mxPoint x="1041" y="210" as="sourcePoint" />
            <mxPoint x="1021" y="210" as="targetPoint" />
          </mxGeometry>
        </mxCell>
        <mxCell id="VlKzPEms0ibN2ueOCc-_-18" value="" style="endArrow=none;html=1;exitX=0.5;exitY=0;exitDx=0;exitDy=0;entryX=0.25;entryY=1;entryDx=0;entryDy=0;" parent="1" target="VlKzPEms0ibN2ueOCc-_-14" edge="1">
          <mxGeometry width="50" height="50" relative="1" as="geometry">
            <mxPoint x="1041" y="210" as="sourcePoint" />
            <mxPoint x="1061" y="190" as="targetPoint" />
          </mxGeometry>
        </mxCell>
        <mxCell id="VlKzPEms0ibN2ueOCc-_-19" value="&lt;font style=&quot;font-size: 9px;&quot;&gt;$$VOel1MinPu$$&lt;/font&gt;" style="text;html=1;strokeColor=none;fillColor=none;align=center;verticalAlign=middle;whiteSpace=wrap;rounded=0;fontSize=15;" parent="1" vertex="1">
          <mxGeometry x="960" y="206" width="120" height="30" as="geometry" />
        </mxCell>
        <mxCell id="VlKzPEms0ibN2ueOCc-_-20" value="&lt;font style=&quot;font-size: 9px;&quot;&gt;$$VOel1MaxPu$$&lt;/font&gt;" style="text;html=1;strokeColor=none;fillColor=none;align=center;verticalAlign=middle;whiteSpace=wrap;rounded=0;fontSize=15;" parent="1" vertex="1">
          <mxGeometry x="1040" y="80" width="160" height="30" as="geometry" />
        </mxCell>
        <mxCell id="VlKzPEms0ibN2ueOCc-_-21" value="$$UOelPu$$" style="text;strokeColor=none;align=center;fillColor=none;html=1;verticalAlign=middle;whiteSpace=wrap;rounded=0;" parent="1" vertex="1">
          <mxGeometry x="1160" y="145" width="60" height="30" as="geometry" />
        </mxCell>
        <mxCell id="VlKzPEms0ibN2ueOCc-_-27" value="" style="endArrow=classic;html=1;rounded=0;exitX=1;exitY=0.5;exitDx=0;exitDy=0;entryX=0;entryY=0.5;entryDx=0;entryDy=0;" parent="1" source="eN8Zq5XajQ-hrPbZrUXH-3" target="GCO7xrDp6TmdYOZJOnFd-120" edge="1">
          <mxGeometry width="50" height="50" relative="1" as="geometry">
            <mxPoint x="120" y="200" as="sourcePoint" />
            <mxPoint x="170" y="150" as="targetPoint" />
            <Array as="points">
              <mxPoint y="160" />
              <mxPoint />
            </Array>
          </mxGeometry>
        </mxCell>
        <mxCell id="VlKzPEms0ibN2ueOCc-_-28" value="" style="endArrow=classic;html=1;rounded=0;exitX=1;exitY=0.75;exitDx=0;exitDy=0;entryX=0;entryY=0.5;entryDx=0;entryDy=0;" parent="1" source="qLZYFt0uQZEpN5fuRu8l-13" target="qLZYFt0uQZEpN5fuRu8l-12" edge="1">
          <mxGeometry width="50" height="50" relative="1" as="geometry">
            <mxPoint x="200" y="200" as="sourcePoint" />
            <mxPoint x="250" y="300" as="targetPoint" />
            <Array as="points">
              <mxPoint x="240" y="200" />
              <mxPoint x="240" y="320" />
            </Array>
          </mxGeometry>
        </mxCell>
        <mxCell id="VlKzPEms0ibN2ueOCc-_-29" value="" style="endArrow=classic;html=1;rounded=0;exitX=1;exitY=0.5;exitDx=0;exitDy=0;entryX=0;entryY=0.25;entryDx=0;entryDy=0;" parent="1" source="GCO7xrDp6TmdYOZJOnFd-120" target="VlKzPEms0ibN2ueOCc-_-1" edge="1">
          <mxGeometry width="50" height="50" relative="1" as="geometry">
            <mxPoint x="120" y="150" as="sourcePoint" />
            <mxPoint x="170" y="100" as="targetPoint" />
            <Array as="points">
              <mxPoint x="240" />
              <mxPoint x="240" y="120" />
            </Array>
          </mxGeometry>
        </mxCell>
        <mxCell id="VlKzPEms0ibN2ueOCc-_-30" value="" style="endArrow=classic;html=1;rounded=0;exitX=1;exitY=0.5;exitDx=0;exitDy=0;entryX=0;entryY=0.25;entryDx=0;entryDy=0;" parent="1" source="GCO7xrDp6TmdYOZJOnFd-120" target="GCO7xrDp6TmdYOZJOnFd-4" edge="1">
          <mxGeometry width="50" height="50" relative="1" as="geometry">
            <mxPoint x="430" y="150" as="sourcePoint" />
            <mxPoint x="480" y="100" as="targetPoint" />
            <Array as="points">
              <mxPoint x="480" />
              <mxPoint x="480" y="140" />
            </Array>
          </mxGeometry>
        </mxCell>
        <mxCell id="VlKzPEms0ibN2ueOCc-_-31" value="" style="endArrow=classic;html=1;rounded=0;exitX=1;exitY=0.5;exitDx=0;exitDy=0;entryX=0;entryY=0.75;entryDx=0;entryDy=0;" parent="1" source="qLZYFt0uQZEpN5fuRu8l-12" target="GCO7xrDp6TmdYOZJOnFd-4" edge="1">
          <mxGeometry width="50" height="50" relative="1" as="geometry">
            <mxPoint x="430" y="150" as="sourcePoint" />
            <mxPoint x="480" y="100" as="targetPoint" />
            <Array as="points">
              <mxPoint x="480" y="320" />
              <mxPoint x="480" y="180" />
            </Array>
          </mxGeometry>
        </mxCell>
      </root>
    </mxGraphModel>
  </diagram>
</mxfile>
